HIERARCHY
ROOT joint_Root
{
	OFFSET 0.0 0.0 0.0
	CHANNELS 6 Xposition Yposition Zposition Zrotation Xrotation Yrotation 
	JOINT Hips
	{
		OFFSET 4.5925 91.4895 -427.239
		CHANNELS 6 Xposition Yposition Zposition Zrotation Xrotation Yrotation 
		JOINT Spine
		{
			OFFSET 15.7357 0.0 0.0
			CHANNELS 6 Xposition Yposition Zposition Zrotation Xrotation Yrotation 
			JOINT Chest
			{
				OFFSET 8.98455 -0.406207 0.0
				CHANNELS 6 Xposition Yposition Zposition Zrotation Xrotation Yrotation 
				JOINT Neck
				{
					OFFSET 16.3773 0.0 0.0
					CHANNELS 6 Xposition Yposition Zposition Zrotation Xrotation Yrotation 
					JOINT Head
					{
						OFFSET 6.45672 0.0 0.0
						CHANNELS 6 Xposition Yposition Zposition Zrotation Xrotation Yrotation 
						End Site
						{
							OFFSET 0.0 0.0 0.0
						}
					}
				}
				JOINT Shoulder_L
				{
					OFFSET 12.9942 -0.242716 4.98039
					CHANNELS 6 Xposition Yposition Zposition Zrotation Xrotation Yrotation 
					JOINT UpperArm_L
					{
						OFFSET 5.34809 0.0 0.0
						CHANNELS 6 Xposition Yposition Zposition Zrotation Xrotation Yrotation 
						JOINT LowerArm_L
						{
							OFFSET 24.3286 1.87007e-05 0.0
							CHANNELS 6 Xposition Yposition Zposition Zrotation Xrotation Yrotation 
							JOINT Hand_L
							{
								OFFSET 22.2916 0.0 0.0
								CHANNELS 6 Xposition Yposition Zposition Zrotation Xrotation Yrotation 
								End Site
								{
									OFFSET 0.0 0.0 0.0
								}
							}
						}
					}
				}
				JOINT Shoulder_R
				{
					OFFSET 12.9945 -0.242716 -4.98039
					CHANNELS 6 Xposition Yposition Zposition Zrotation Xrotation Yrotation 
					JOINT UpperArm_R
					{
						OFFSET -5.34813 0.0 0.0
						CHANNELS 6 Xposition Yposition Zposition Zrotation Xrotation Yrotation 
						JOINT LowerArm_R
						{
							OFFSET -24.3289 0.000322201 0.0
							CHANNELS 6 Xposition Yposition Zposition Zrotation Xrotation Yrotation 
							JOINT Hand_R
							{
								OFFSET -22.2915 -0.000108084 0.0
								CHANNELS 6 Xposition Yposition Zposition Zrotation Xrotation Yrotation 
								End Site
								{
									OFFSET 0.0 0.0 0.0
								}
							}
						}
					}
				}
			}
		}
		JOINT UpperLeg_L
		{
			OFFSET -2.19248 -6.46944 0.0
			CHANNELS 6 Xposition Yposition Zposition Zrotation Xrotation Yrotation 
			JOINT LowerLeg_L
			{
				OFFSET 39.0811 0.0 -1.23785e-05
				CHANNELS 6 Xposition Yposition Zposition Zrotation Xrotation Yrotation 
				JOINT Foot_L
				{
					OFFSET 40.9854 0.0 -1.26872e-05
					CHANNELS 6 Xposition Yposition Zposition Zrotation Xrotation Yrotation 
					JOINT Toes_L
					{
						OFFSET 11.7543 0.0 0.0
						CHANNELS 6 Xposition Yposition Zposition Zrotation Xrotation Yrotation 
						End Site
						{
							OFFSET 0.0 0.0 0.0
						}
					}
				}
			}
		}
		JOINT UpperLeg_R
		{
			OFFSET -2.19251 6.46944 0.0
			CHANNELS 6 Xposition Yposition Zposition Zrotation Xrotation Yrotation 
			JOINT LowerLeg_R
			{
				OFFSET -39.0811 -0.00228153 -0.0401928
				CHANNELS 6 Xposition Yposition Zposition Zrotation Xrotation Yrotation 
				JOINT Foot_R
				{
					OFFSET -40.9854 0.0 0.0
					CHANNELS 6 Xposition Yposition Zposition Zrotation Xrotation Yrotation 
					JOINT Toes_R
					{
						OFFSET -11.7543 0.0 0.0
						CHANNELS 6 Xposition Yposition Zposition Zrotation Xrotation Yrotation 
						End Site
						{
							OFFSET 0.0 0.0 0.0
						}
					}
				}
			}
		}
	}
}
MOTION
Frames:	5
Frame Time:	0.0333333
0.000000 0.000000 0.000000 0.000000 0.000000 -0.000000 -49.454800 91.137200 179.915000 73.143600 77.892900 19.247900 15.735700 0.000005 -0.000001 69.716100 84.260600 -69.088400 8.984550 -0.406207 -0.000000 3.029730 -4.001320 1.360470 16.377300 -0.000001 -0.000001 -2.614770 -0.606900 -2.427790 6.456720 -0.000001 -0.000000 -10.557200 1.217240 -3.490870 12.994200 -0.242716 4.980390 -91.101700 4.394190 -75.910300 5.348090 -0.000007 -0.000001 -57.726300 26.378900 -28.104900 24.328600 0.000019 0.000005 11.690600 17.943500 -33.887800 22.291600 -0.000001 0.000005 11.958900 5.269760 0.904616 12.994500 -0.242716 -4.980390 88.143700 10.794400 -80.182300 -5.348130 -0.000001 -0.000004 -70.341100 23.791100 4.662880 -24.328900 0.000322 -0.000009 1.798980 7.735700 -13.142500 -22.291500 -0.000108 -0.000004 12.283600 5.358660 -1.639080 -2.192480 -6.469440 -0.000000 -176.634000 -12.572000 3.288010 39.081100 -0.000007 -0.000012 -0.116883 0.285081 22.293700 40.985400 -0.000006 -0.000013 4.791010 6.975750 -73.626600 11.754300 -0.000000 0.000003 -0.000209 -0.001921 -16.649900 -2.192510 6.469440 -0.000001 177.643000 9.412810 159.983000 -39.081100 -0.002282 -0.040193 0.042582 -0.043845 41.877300 -40.985400 0.000008 0.000006 2.645390 4.442040 -59.447200 -11.754300 -0.000006 -0.000006 -0.014573 -0.135113 -22.085000
0.000000 0.000000 0.000000 0.000000 0.000000 -0.000000 -47.799200 91.156700 180.334000 71.312600 78.541700 20.478900 15.735700 0.000005 -0.000001 67.737800 84.278500 -66.845500 8.984550 -0.406207 -0.000000 2.865990 -4.369150 1.892770 16.377300 -0.000001 -0.000001 -2.860720 -0.301805 -2.151970 6.456720 -0.000001 -0.000000 -11.064900 1.874120 -3.000450 12.994200 -0.242716 4.980390 -91.044800 4.249760 -76.174000 5.348090 -0.000007 -0.000001 -56.690900 26.638600 -29.382000 24.328600 0.000019 0.000005 11.783000 16.738900 -35.915400 22.291600 -0.000001 0.000005 12.468100 5.280020 0.626060 12.994500 -0.242716 -4.980390 88.093200 10.901100 -80.015800 -5.348130 -0.000001 -0.000004 -70.395800 22.601200 5.566120 -24.328900 0.000322 -0.000009 1.727190 8.231370 -11.901100 -22.291500 -0.000108 -0.000004 12.287400 5.348000 -1.317480 -2.192480 -6.469440 -0.000000 -176.118000 -13.270500 5.211000 39.081100 -0.000007 -0.000012 -0.041084 0.113739 19.860100 40.985400 -0.000006 -0.000013 6.351460 8.092220 -73.999700 11.754300 -0.000000 0.000003 -0.912150 -1.165490 -15.862900 -2.192510 6.469440 -0.000001 179.702000 12.609600 159.839000 -39.081100 -0.002282 -0.040193 0.023824 -0.033049 31.844100 -40.985400 0.000008 0.000006 3.282980 7.634130 -57.984900 -11.754300 -0.000006 -0.000006 -0.014430 -0.134199 -22.047500
0.000000 0.000000 0.000000 0.000000 0.000000 -0.000000 -46.010000 91.091700 180.827000 69.548400 78.817000 21.719200 15.735700 0.000005 -0.000001 67.470600 84.333800 -66.261600 8.984550 -0.406207 -0.000000 2.756210 -4.391000 2.522120 16.377300 -0.000001 -0.000001 -3.012320 -0.031849 -1.939510 6.456720 -0.000001 -0.000000 -11.744800 2.366290 -2.527610 12.994200 -0.242716 4.980390 -91.048500 4.307160 -76.304800 5.348090 -0.000007 -0.000001 -55.820000 27.136100 -30.090000 24.328600 0.000019 0.000005 12.028600 15.966700 -37.761800 22.291600 -0.000001 0.000005 12.471000 5.290880 0.326672 12.994500 -0.242716 -4.980390 88.067600 11.015700 -79.986300 -5.348130 -0.000001 -0.000004 -70.282300 21.712400 6.124360 -24.328900 0.000322 -0.000009 1.704530 8.873790 -10.925800 -22.291500 -0.000108 -0.000004 12.431100 5.337710 -1.011470 -2.192480 -6.469440 -0.000000 -175.150000 -14.538600 6.109630 39.081100 -0.000007 -0.000012 -0.018045 0.050710 19.587100 40.985400 -0.000006 -0.000013 6.842320 9.907030 -73.806300 11.754300 -0.000000 0.000003 -1.114190 -1.412060 -17.149500 -2.192510 6.469440 -0.000001 -177.058000 18.249400 159.295000 -39.081100 -0.002282 -0.040193 0.014297 -0.026217 22.725200 -40.985400 0.000008 0.000006 1.750270 13.514400 -54.743200 -11.754300 -0.000006 -0.000006 -0.015019 -0.137934 -22.200800
0.000000 0.000000 0.000000 0.000000 0.000000 -0.000000 -43.931500 90.895300 181.446000 68.627900 78.805500 22.398300 15.735700 0.000005 -0.000001 68.705500 84.421600 -67.215900 8.984550 -0.406207 -0.000000 2.690520 -4.114110 3.073940 16.377300 -0.000001 -0.000001 -2.865820 0.150275 -1.708060 6.456720 -0.000001 -0.000000 -12.509600 2.700840 -1.988690 12.994200 -0.242716 4.980390 -91.091600 4.449530 -76.201600 5.348090 -0.000007 -0.000001 -54.994900 28.193500 -30.402000 24.328600 0.000019 0.000005 12.127900 15.356200 -39.057800 22.291600 -0.000001 0.000005 12.315300 5.299460 0.085736 12.994500 -0.242716 -4.980390 88.040100 11.207200 -80.014200 -5.348130 -0.000001 -0.000004 -70.022100 21.108000 6.411760 -24.328900 0.000322 -0.000009 1.663190 9.340730 -10.149200 -22.291500 -0.000108 -0.000004 12.218900 5.329000 -0.756534 -2.192480 -6.469440 -0.000000 -173.981000 -15.670400 7.176850 39.081100 -0.000007 -0.000012 -0.018063 0.049699 19.973000 40.985400 -0.000006 -0.000013 6.542350 11.708200 -73.419000 11.754300 -0.000000 0.000003 -0.878562 -1.117130 -19.339300 -2.192510 6.469440 -0.000001 -173.003000 25.106100 157.975000 -39.081100 -0.002282 -0.040193 0.010137 -0.022141 17.096900 -40.985400 0.000008 0.000006 -2.095520 20.326700 -51.395100 -11.754300 -0.000006 -0.000006 -0.014855 -0.136903 -22.158500
0.000000 0.000000 0.000000 0.000000 0.000000 -0.000000 -41.479400 90.470500 182.240000 70.611700 79.114100 20.300600 15.735700 0.000005 -0.000001 69.206500 84.586900 -67.679200 8.984550 -0.406207 -0.000000 2.414150 -3.911600 3.134890 16.377300 -0.000001 -0.000001 -2.719670 0.267805 -1.314100 6.456720 -0.000001 -0.000000 -12.599600 2.806890 -1.385610 12.994200 -0.242716 4.980390 -91.068300 4.253080 -75.885700 5.348090 -0.000007 -0.000001 -54.848700 29.727600 -29.973800 24.328600 0.000019 0.000005 12.177900 15.007400 -39.807800 22.291600 -0.000001 0.000005 11.919000 5.304240 -0.046744 12.994500 -0.242716 -4.980390 88.022100 11.341300 -80.040000 -5.348130 -0.000001 -0.000004 -69.891200 21.259100 6.561820 -24.328900 0.000322 -0.000009 1.601200 9.476630 -9.641980 -22.291500 -0.000108 -0.000004 12.176100 5.324560 -0.627331 -2.192480 -6.469440 -0.000000 -173.454000 -15.987100 8.129740 39.081100 -0.000007 -0.000012 -0.017952 0.046341 21.175300 40.985400 -0.000006 -0.000013 5.853370 13.007700 -73.050200 11.754300 -0.000000 0.000003 -0.408296 -0.570617 -21.721500 -2.192510 6.469440 -0.000001 -170.015000 27.257800 155.591000 -39.081100 -0.002282 -0.040193 0.009547 -0.019424 17.761100 -40.985400 0.000008 0.000006 4.284780 20.358700 -56.211400 -11.754300 -0.000006 -0.000006 -0.014835 -0.136773 -22.153200
